<?xml version="1.0" encoding="iso-8859-1"?>
<!-- Uploaded to: SVG Repo, www.svgrepo.com, Generator: SVG Repo Mixer Tools -->
<!DOCTYPE svg PUBLIC "-//W3C//DTD SVG 1.1//EN" "http://www.w3.org/Graphics/SVG/1.1/DTD/svg11.dtd">
<svg fill="#FFFFFF" version="1.1" id="Capa_1" xmlns="http://www.w3.org/2000/svg" xmlns:xlink="http://www.w3.org/1999/xlink"
	 width="800px" height="800px" viewBox="0 0 402.917 402.917"
	 xml:space="preserve">
<g>
	<g id="Layer_8_7_">
		<path d="M386.004,20.848v361.213c0,7.447-3.972,14.333-10.427,18.063c-6.46,3.724-14.398,3.724-20.853,0L138.281,219.515
			c-6.452-3.719-10.436-10.604-10.436-18.058c0-7.451,3.978-14.34,10.436-18.061L354.725,2.79C357.952,0.928,361.551,0,365.151,0
			c3.605,0,7.199,0.934,10.427,2.79C382.033,6.508,386.004,13.397,386.004,20.848z M94.066,0.201H25.261
			c-4.613,0-8.349,3.735-8.349,8.34v385.808c0,4.604,3.735,8.34,8.349,8.34h68.805c4.607,0,8.34-3.735,8.34-8.34V8.547
			C102.406,3.943,98.673,0.201,94.066,0.201z"/>
	</g>
</g>
</svg>
