<svg viewBox="0 -3.5 24.00 24.00" xmlns="http://www.w3.org/2000/svg" fill="#ed6925"><g id="SVGRepo_bgCarrier" stroke-width="0"></g><g id="SVGRepo_tracerCarrier" stroke-linecap="round" stroke-linejoin="round"></g><g id="SVGRepo_iconCarrier"> <g id="wave" transform="translate(-2 -4)"> <path id="primary" d="M21,11c-2.25,0-2.25,2-4.5,2s-2.25-2-4.5-2-2.25,2-4.5,2S5.25,11,3,11" fill="none" stroke="#ed6925" stroke-linecap="round" stroke-linejoin="round" stroke-width="2"></path> <path id="primary-2" data-name="primary" d="M3,5C5.25,5,5.25,7,7.5,7S9.75,5,12,5s2.26,2,4.51,2S18.75,5,21,5" fill="none" stroke="#ed6925" stroke-linecap="round" stroke-linejoin="round" stroke-width="2"></path> <path id="primary-3" data-name="primary" d="M21,17c-2.25,0-2.25,2-4.5,2s-2.25-2-4.5-2-2.25,2-4.5,2S5.25,17,3,17" fill="none" stroke="#ed6925" stroke-linecap="round" stroke-linejoin="round" stroke-width="2"></path> </g> </g></svg>
