<svg fill="#7896d2" height="200px" width="200px" version="1.1" id="Icons" xmlns="http://www.w3.org/2000/svg" xmlns:xlink="http://www.w3.org/1999/xlink" viewBox="0 0 29 32" xml:space="preserve" stroke="#7896d2" stroke-width="0.8"><g id="SVGRepo_bgCarrier" stroke-width="0"></g><g id="SVGRepo_tracerCarrier" stroke-linecap="round" stroke-linejoin="round"></g><g id="SVGRepo_iconCarrier"> <g> <path d="M4,13c-0.6,0-1,0.4-1,1v4c0,0.6,0.4,1,1,1s1-0.4,1-1v-4C5,13.4,4.6,13,4,13z"></path> <path d="M8,11c-0.6,0-1,0.4-1,1v8c0,0.6,0.4,1,1,1s1-0.4,1-1v-8C9,11.4,8.6,11,8,11z"></path> <path d="M12,6c-0.6,0-1,0.4-1,1v18c0,0.6,0.4,1,1,1s1-0.4,1-1V7C13,6.4,12.6,6,12,6z"></path> <path d="M16,13c-0.6,0-1,0.4-1,1v4c0,0.6,0.4,1,1,1s1-0.4,1-1v-4C17,13.4,16.6,13,16,13z"></path> <path d="M20,9c-0.6,0-1,0.4-1,1v12c0,0.6,0.4,1,1,1s1-0.4,1-1V10C21,9.4,20.6,9,20,9z"></path> <path d="M24,6c-0.6,0-1,0.4-1,1v18c0,0.6,0.4,1,1,1s1-0.4,1-1V7C25,6.4,24.6,6,24,6z"></path> <path d="M28,13c-0.6,0-1,0.4-1,1v4c0,0.6,0.4,1,1,1s1-0.4,1-1v-4C29,13.4,28.6,13,28,13z"></path> </g> </g></svg>
